<svg xmlns="http://www.w3.org/2000/svg" xmlns:xlink="http://www.w3.org/1999/xlink" version="1.1" width="699.428" height="699.428" style="" xml:space="preserve"><rect id="backgroundrect" width="100%" height="100%" x="0" y="0" fill="none" stroke="none"/>
















<g class="currentLayer" style=""><title>Layer 1</title><g id="svg_1" class="selected" fill="#ffffff" fill-opacity="1">
	<g id="_x33__21_" fill="#ffffff" fill-opacity="1">
		<g id="svg_2" fill="#ffffff" fill-opacity="1">
			<path d="M502.30914170885086,0 c-2.71,0 -262.286,0 -262.286,0 C193.77314170885086,0 152.59514170885086,42.425 152.59514170885086,87.429 l-25.267,0.5900000000000001 c-46.228,0 -84.019,41.834 -84.019,86.838 V612 c0,45.004 41.179,87.428 87.429,87.428 H458.59514170885086 c46.249,0 87.428,-42.424 87.428,-87.428 h21.857 c46.25,0 87.429,-42.424 87.429,-87.428 v-349.19 L502.30914170885086,0 zM458.59514170885086,655.715 H130.73814170885086 c-22.95,0 -43.714,-21.441 -43.714,-43.715 V174.857 c0,-22.272 18.688,-42.993 41.638,-42.993 L152.59514170885086,131.143 v393.429 C152.59514170885086,569.576 193.77314170885086,612 240.02314170885086,612 h262.286 C502.30914170885086,634.273 481.5441417088509,655.715 458.59514170885086,655.715 zM611.5951417088509,524.572 c0,22.271 -20.765,43.713 -43.715,43.713 H240.02314170885086 c-22.95,0 -43.714,-21.441 -43.714,-43.713 V87.429 c0,-22.272 20.764,-43.714 43.714,-43.714 H458.59514170885086 c-0.35100000000000003,50.337 0,87.975 0,87.975 c0,45.419 40.872,86.882 87.428,86.882 c0,0 23.213,0 65.572,0 V524.572 zM546.0231417088509,174.857 c-23.277,0 -43.714,-42.293 -43.714,-64.981 c0,0 0,-22.994 0,-65.484 v-0.04400000000000001 L611.5951417088509,174.857 H546.0231417088509 zM502.30914170885086,306.394 H305.59514170885086 c-12.065,0 -21.857,9.77 -21.857,21.835 c0,12.065 9.792,21.835 21.857,21.835 h196.714 c12.065,0 21.857,-9.771 21.857,-21.835 C524.1661417088509,316.164 514.3741417088509,306.394 502.30914170885086,306.394 zM502.30914170885086,415.57 H305.59514170885086 c-12.065,0 -21.857,9.77 -21.857,21.834 c0,12.066 9.792,21.836 21.857,21.836 h196.714 c12.065,0 21.857,-9.77 21.857,-21.836 C524.1661417088509,425.34 514.3741417088509,415.57 502.30914170885086,415.57 z" id="svg_3" fill="#ffffff" fill-opacity="1"/>
		</g>
	</g>
</g><g id="svg_4">
</g><g id="svg_5">
</g><g id="svg_6">
</g><g id="svg_7">
</g><g id="svg_8">
</g><g id="svg_9">
</g><g id="svg_10">
</g><g id="svg_11">
</g><g id="svg_12">
</g><g id="svg_13">
</g><g id="svg_14">
</g><g id="svg_15">
</g><g id="svg_16">
</g><g id="svg_17">
</g><g id="svg_18">
</g></g></svg>